<svg width="57" height="64" viewBox="0 0 57 64" fill="none" xmlns="http://www.w3.org/2000/svg">
<path d="M2.36926 14.0909L26.7749 28.8015V0.0262451L21.4389 3.08286V19.7314L12.6893 14.3324L17.7311 11.1445V5.22038L2.36926 14.0909Z" fill="#F4E096"/>
<path d="M54.4204 49.6148L30.2196 34.9988V63.5849L35.5083 60.5336V44.0688L44.258 49.4625L39.2161 52.6504V58.3908L54.4204 49.6148Z" fill="#F4E096"/>
<path d="M50.1664 11.5122L35.3612 19.8207V9.34315L40.9965 12.7044L46.4322 9.3589L30.2196 0V28.8172L54.8878 14.2432L50.1664 11.5122Z" fill="#F4E096"/>
<path d="M7.0275 52.183L21.6331 43.99V54.4729L15.9978 51.1116L10.7564 54.3363L26.7747 63.5849V34.9988L2.30078 49.4573L7.0275 52.183Z" fill="#F4E096"/>
<path d="M56.8946 17.825V35.9335L51.8475 32.9925V26.4591L46.1492 29.6733L42.3626 31.8055L51.8475 37.3305L56.8946 40.2716V46.222L37.1737 34.7308L32.1266 31.7898L35.2305 30.0409L37.3155 28.8645L41.0968 26.7322L51.8475 20.6715L56.8946 17.825Z" fill="#F4E096"/>
<path d="M0.105347 46.222V28.1134L5.15243 31.0545V37.5879L10.8508 34.3737L14.6374 32.2414L5.15243 26.7164L0.105347 23.7754V17.825L19.8263 29.3161L24.8733 32.2572L21.7695 34.0061L19.6845 35.1825L15.9031 37.3148L5.15243 43.3755L0.105347 46.222Z" fill="#F4E096"/>
</svg>
