<svg width="39" height="24" viewBox="0 0 39 24" fill="none" xmlns="http://www.w3.org/2000/svg">
<g clip-path="url(#clip0_1_211)">
<path d="M14.09 23.1198L18 19.2498C18.0937 19.1569 18.1681 19.0463 18.2189 18.9244C18.2697 18.8025 18.2958 18.6718 18.2958 18.5398C18.2958 18.4078 18.2697 18.2771 18.2189 18.1553C18.1681 18.0334 18.0937 17.9228 18 17.8298C17.9071 17.7361 17.7965 17.6617 17.6746 17.6109C17.5527 17.5602 17.422 17.534 17.29 17.534C17.158 17.534 17.0273 17.5602 16.9054 17.6109C16.7836 17.6617 16.673 17.7361 16.58 17.8298L13 21.3898L13 0.999832C13 0.734615 12.8947 0.480261 12.7071 0.292724C12.5196 0.105188 12.2652 -0.000168133 12 -0.000168122C11.7348 -0.00016811 11.4805 0.105188 11.2929 0.292724C11.1054 0.480261 11 0.734615 11 0.999832L11 21.4498L7.38002 17.8298C7.19405 17.6525 6.94696 17.5536 6.69002 17.5536C6.43308 17.5536 6.186 17.6525 6.00002 17.8298C5.90629 17.9228 5.8319 18.0334 5.78113 18.1553C5.73036 18.2771 5.70422 18.4078 5.70422 18.5398C5.70422 18.6718 5.73036 18.8025 5.78113 18.9244C5.8319 19.0463 5.90629 19.1569 6.00002 19.2498L9.85002 23.1198C10.4125 23.6816 11.175 23.9972 11.97 23.9972C12.765 23.9972 13.5275 23.6816 14.09 23.1198Z" fill="#F4E096"/>
</g>
<g clip-path="url(#clip1_1_211)">
<path d="M24.91 0.880167L21 4.75017C20.9062 4.84313 20.8319 4.95373 20.7811 5.07559C20.7303 5.19745 20.7042 5.32816 20.7042 5.46017C20.7042 5.59218 20.7303 5.72289 20.7811 5.84474C20.8319 5.9666 20.9062 6.0772 21 6.17017C21.0929 6.2639 21.2035 6.33829 21.3254 6.38906C21.4473 6.43983 21.578 6.46597 21.71 6.46597C21.842 6.46597 21.9727 6.43983 22.0946 6.38906C22.2164 6.33829 22.327 6.2639 22.42 6.17017L26 2.61017L26 23.0002C26 23.2654 26.1053 23.5197 26.2929 23.7073C26.4804 23.8948 26.7348 24.0002 27 24.0002C27.2652 24.0002 27.5195 23.8948 27.7071 23.7073C27.8946 23.5197 28 23.2654 28 23.0002L28 2.55017L31.62 6.17017C31.806 6.34746 32.053 6.44636 32.31 6.44636C32.5669 6.44636 32.814 6.34746 33 6.17017C33.0937 6.0772 33.1681 5.9666 33.2189 5.84474C33.2696 5.72289 33.2958 5.59218 33.2958 5.46017C33.2958 5.32816 33.2696 5.19745 33.2189 5.07559C33.1681 4.95373 33.0937 4.84313 33 4.75017L29.15 0.880168C28.5875 0.318366 27.825 0.00280738 27.03 0.00280734C26.235 0.00280731 25.4725 0.318366 24.91 0.880167Z" fill="#F4E096"/>
</g>
<defs>
<clipPath id="clip0_1_211">
<rect width="24" height="24" fill="white" transform="translate(0 24) rotate(-90)"/>
</clipPath>
<clipPath id="clip1_1_211">
<rect width="24" height="24" fill="white" transform="translate(39) rotate(90)"/>
</clipPath>
</defs>
</svg>
